<svg width="380" height="380" viewBox="0 0 380 380" fill="none" xmlns="http://www.w3.org/2000/svg">
<rect width="380" height="380" fill="#34547A" fill-opacity="0.8"/>
<g clip-path="url(#clip0)">
<path d="M218.701 179.251C202.803 163.352 176.936 163.352 161.037 179.251L150.418 189.868L161.3 200.751C169.249 208.7 179.69 212.676 190.133 212.676C200.576 212.676 211.016 208.701 218.966 200.751L229.585 190.132L218.701 179.251ZM217.074 198.86C202.218 213.715 178.047 213.715 163.191 198.86L154.199 189.868L162.928 181.14C177.784 166.286 201.955 166.286 216.81 181.14L225.802 190.132L217.074 198.86Z" fill="white"/>
<path d="M188.626 179.263C183.464 179.263 179.265 183.462 179.265 188.624C179.265 189.362 179.864 189.961 180.603 189.961C181.341 189.961 181.94 189.362 181.94 188.624C181.94 184.937 184.939 181.937 188.626 181.937C189.364 181.937 189.963 181.338 189.963 180.6C189.963 179.862 189.366 179.263 188.626 179.263Z" fill="white"/>
<path d="M189.963 172.576C180.378 172.576 172.579 180.375 172.579 189.961C172.579 199.546 180.378 207.345 189.963 207.345C199.549 207.345 207.348 199.546 207.348 189.961C207.348 180.375 199.55 172.576 189.963 172.576ZM189.963 204.671C181.853 204.671 175.253 198.071 175.253 189.961C175.253 181.85 181.853 175.251 189.963 175.251C198.074 175.251 204.673 181.85 204.673 189.961C204.673 198.071 198.075 204.671 189.963 204.671Z" fill="white"/>
</g>
<defs>
<clipPath id="clip0">
<rect width="79.1664" height="79.1664" fill="white" transform="translate(150.418 150.418)"/>
</clipPath>
</defs>
</svg>
